<svg width="680" height="753" viewBox="50 50 680 753" fill="none" xmlns="http://www.w3.org/2000/svg">
<g filter="url(#filter0_dd_1113_6641)">
<mask id="path-1-inside-1_1113_6641" fill="white">
<path fill-rule="evenodd" clip-rule="evenodd" d="M46 65.6785C46 59.3792 48.8449 53.6635 53.5107 50H578.761C554.907 87.9115 531.326 139.011 561.446 196.041C586.609 243.685 557.319 280.867 529.234 316.519C498.099 356.044 468.446 393.686 516.114 441.614C606.779 532.773 628.249 574.48 625.248 622.073C623.216 654.284 608.366 681.606 590.848 703H54.5803C49.3045 699.4 46 693.311 46 686.526V65.6785Z"/>
</mask>
<path fill-rule="evenodd" clip-rule="evenodd" d="M46 65.6785C46 59.3792 48.8449 53.6635 53.5107 50H578.761C554.907 87.9115 531.326 139.011 561.446 196.041C586.609 243.685 557.319 280.867 529.234 316.519C498.099 356.044 468.446 393.686 516.114 441.614C606.779 532.773 628.249 574.48 625.248 622.073C623.216 654.284 608.366 681.606 590.848 703H54.5803C49.3045 699.4 46 693.311 46 686.526V65.6785Z" fill="url(#paint0_linear_1113_6641)"/>
<path d="M53.5107 50V49H53.165L52.8931 49.2135L53.5107 50ZM578.761 50L579.607 50.5326L580.572 49H578.761V50ZM561.446 196.041L562.331 195.574L561.446 196.041ZM529.234 316.519L530.02 317.138L529.234 316.519ZM516.114 441.614L515.405 442.319L516.114 441.614ZM625.248 622.073L626.246 622.136L625.248 622.073ZM590.848 703V704H591.322L591.622 703.634L590.848 703ZM54.5803 703L54.0166 703.826L54.2716 704H54.5803V703ZM52.8931 49.2135C47.9838 53.0682 45 59.0749 45 65.6785H47C47 59.6835 49.7059 54.2588 54.1282 50.7865L52.8931 49.2135ZM578.761 49H53.5107V51H578.761V49ZM562.331 195.574C532.479 139.054 555.788 88.3891 579.607 50.5326L577.915 49.4674C554.026 87.434 530.173 138.969 560.562 196.508L562.331 195.574ZM530.02 317.138C544.04 299.34 558.488 281.013 566.24 261.14C574.02 241.196 575.064 219.683 562.331 195.574L560.562 196.508C572.992 220.043 571.972 240.943 564.377 260.414C556.753 279.957 542.513 298.046 528.449 315.9L530.02 317.138ZM516.823 440.909C504.987 429.008 498.006 417.802 494.63 407.105C491.256 396.42 491.459 386.18 494.09 376.17C499.373 356.07 514.413 336.95 530.02 317.138L528.449 315.9C512.921 335.613 497.566 355.077 492.156 375.661C489.441 385.992 489.222 396.62 492.722 407.708C496.219 418.784 503.407 430.256 515.405 442.319L516.823 440.909ZM626.246 622.136C629.278 574.056 607.48 532.06 516.823 440.909L515.405 442.319C606.078 533.487 627.22 574.904 624.25 622.01L626.246 622.136ZM591.622 703.634C609.222 682.139 624.197 654.624 626.246 622.136L624.25 622.01C622.236 653.945 607.51 681.073 590.075 702.366L591.622 703.634ZM54.5803 704H590.848V702H54.5803V704ZM45 686.526C45 693.64 48.4664 700.039 54.0166 703.826L55.1439 702.174C50.1427 698.761 47 692.983 47 686.526H45ZM45 65.6785V686.526H47V65.6785H45Z" fill="black" mask="url(#path-1-inside-1_1113_6641)"/>
</g>
<defs>
<filter id="filter0_dd_1113_6641" x="0" y="0" width="679.514" height="753" filterUnits="userSpaceOnUse" color-interpolation-filters="sRGB">
<feFlood flood-opacity="0" result="BackgroundImageFix"/>
<feColorMatrix in="SourceAlpha" type="matrix" values="0 0 0 0 0 0 0 0 0 0 0 0 0 0 0 0 0 0 127 0" result="hardAlpha"/>
<feOffset dx="4"/>
<feGaussianBlur stdDeviation="3"/>
<feComposite in2="hardAlpha" operator="out"/>
<feColorMatrix type="matrix" values="0 0 0 0 0 0 0 0 0 0 0 0 0 0 0 0 0 0 0.05 0"/>
<feBlend mode="normal" in2="BackgroundImageFix" result="effect1_dropShadow_1113_6641"/>
<feColorMatrix in="SourceAlpha" type="matrix" values="0 0 0 0 0 0 0 0 0 0 0 0 0 0 0 0 0 0 127 0" result="hardAlpha"/>
<feOffset dx="4"/>
<feGaussianBlur stdDeviation="25"/>
<feComposite in2="hardAlpha" operator="out"/>
<feColorMatrix type="matrix" values="0 0 0 0 0 0 0 0 0 0 0 0 0 0 0 0 0 0 0.08 0"/>
<feBlend mode="normal" in2="effect1_dropShadow_1113_6641" result="effect2_dropShadow_1113_6641"/>
<feBlend mode="normal" in="SourceGraphic" in2="effect2_dropShadow_1113_6641" result="shape"/>
</filter>
<linearGradient id="paint0_linear_1113_6641" x1="335.757" y1="703" x2="335.757" y2="50" gradientUnits="userSpaceOnUse">
<stop stop-color="#3B82F6"/>
<stop offset="1" stop-color="#023664"/>
</linearGradient>
</defs>
</svg>
