<svg width="105" height="40" viewBox="0 0 105 40" fill="none" xmlns="http://www.w3.org/2000/svg">
<path d="M21.3783 3.77C22.1717 4.19 22.6733 4.80833 22.8833 5.625C22.4167 8.23833 21.9967 10.84 21.6233 13.43C21.25 15.9967 20.8883 18.155 20.5383 19.905C20.1883 21.6317 19.9433 22.9267 19.8033 23.79C19.6867 24.6533 19.5467 25.5167 19.3833 26.38L19.1733 27.115C19.1267 27.3717 19.08 27.605 19.0333 27.815C18.9867 28.0483 18.94 28.2933 18.8933 28.55C18.24 29.2967 17.3533 29.67 16.2333 29.67C15.0433 29.67 14.0983 29.3667 13.3983 28.76C12.9783 28.4333 12.9083 27.745 13.1883 26.695C13.305 26.275 13.375 25.7383 13.3983 25.085C13.445 24.4083 13.4917 23.8483 13.5383 23.405V23.335C12.8383 23.5917 12.2083 23.93 11.6483 24.35C11.0883 24.7467 10.7383 25.0033 10.5983 25.12C10.4583 25.2133 10.2717 25.295 10.0383 25.365C9.80501 25.4117 9.59501 25.4467 9.40834 25.47C8.96501 25.4933 8.66167 25.5633 8.49834 25.68C7.14501 28.1067 5.93167 29.46 4.85834 29.74C4.18167 29.95 3.50501 29.9967 2.82834 29.88C2.15167 29.7867 1.615 29.39 1.21834 28.69C0.471672 27.99 0.658338 26.0767 1.77834 22.95C2.38501 21.2933 3.24834 19.31 4.36834 17C5.51167 14.6667 6.60834 12.6367 7.65834 10.91C9.92167 7.2 12.4067 4.07333 15.1133 1.53C15.5567 1.34333 16.035 1.13333 16.5483 0.899998C17.0617 0.643332 17.5633 0.503333 18.0533 0.479999C18.5667 0.456665 19.0917 0.514998 19.6283 0.654999C20.165 0.794999 20.62 1.005 20.9933 1.285C21.8567 1.93833 21.985 2.76667 21.3783 3.77ZM13.8883 12.975C13.3983 14.375 12.9083 15.67 12.4183 16.86C11.9283 18.0267 11.5083 19.0533 11.1583 19.94L13.9233 19.835C14.11 18.3417 14.32 16.86 14.5533 15.39C14.7867 13.92 15.0083 12.45 15.2183 10.98L13.8883 12.975ZM12.9433 19.975C13.27 19.975 13.5967 19.9517 13.9233 19.905V19.87C13.62 19.8933 13.34 19.9167 13.0833 19.94C12.8267 19.9633 12.78 19.975 12.9433 19.975ZM25.5942 12.275C25.6409 11.8317 25.9209 11.47 26.4342 11.19C26.9475 10.91 27.5192 10.77 28.1492 10.77C28.7792 10.77 29.3859 10.9217 29.9692 11.225C30.5759 11.505 30.9842 11.995 31.1942 12.695C33.1775 10.9683 34.9859 10.3033 36.6192 10.7C37.1792 10.8167 37.6575 11.1433 38.0542 11.68C39.2442 10.5367 40.5625 9.79 42.0092 9.44C43.8292 9.37 45.1359 9.79 45.9292 10.7C46.0459 10.8167 46.1625 10.945 46.2792 11.085C46.6059 11.435 46.7925 11.6683 46.8392 11.785C47.2592 12.4383 47.3759 13.9433 47.1892 16.3C46.9325 19.3567 46.3492 22.425 45.4392 25.505C44.9492 27.0683 44.5059 27.8733 44.1092 27.92C43.8759 27.9667 43.6542 27.9667 43.4442 27.92C43.2575 27.8733 43.0825 27.8383 42.9192 27.815C42.7792 27.815 42.6975 27.955 42.6742 28.235C42.2075 28.8417 41.4959 29.145 40.5392 29.145C39.6059 29.145 38.8125 28.8533 38.1592 28.27C37.4359 27.6633 37.1792 26.9517 37.3892 26.135C37.6225 25.295 37.8792 24.4433 38.1592 23.58C38.4392 22.6933 38.7425 21.7833 39.0692 20.85C39.6292 19.2167 40.2475 17.5133 40.9242 15.74C40.4342 16.3 39.7692 17.3617 38.9292 18.925C38.0892 20.465 37.5642 21.3867 37.3542 21.69C36.9575 22.4833 36.6309 23.1133 36.3742 23.58C36.1175 24.0233 35.7675 24.385 35.3242 24.665C34.9042 24.9217 34.5075 25.085 34.1342 25.155C33.7842 25.225 33.4459 25.2367 33.1192 25.19C32.3492 25.0733 31.8009 24.7467 31.4742 24.21C31.4042 24.0233 31.3342 23.8367 31.2642 23.65C31.1942 23.4633 31.1359 23.2067 31.0892 22.88C31.0192 22.1567 31.1125 20.9783 31.3692 19.345L31.2992 19.45C31.5792 19.17 31.6725 19.1 31.5792 19.24C30.6459 20.57 30.0859 21.4217 29.8992 21.795C29.7125 22.1683 29.5142 22.5883 29.3042 23.055C29.0942 23.4983 28.8492 24.0233 28.5692 24.63C28.2892 25.2133 28.0675 25.7383 27.9042 26.205C27.7409 26.6717 27.5425 27.1267 27.3092 27.57C26.2592 29.39 24.4159 30.125 21.7792 29.775C21.2192 29.705 20.7409 29.565 20.3442 29.355C19.9475 29.1683 19.7842 28.8767 19.8542 28.48C20.0409 27.5467 20.4725 25.995 21.1492 23.825C22.4792 19.5317 23.2725 16.7667 23.5292 15.53C23.6925 15.11 23.8325 14.6783 23.9492 14.235C24.0892 13.7917 24.2292 13.4067 24.3692 13.08C24.6492 12.31 25.0575 12.0417 25.5942 12.275ZM37.7392 20.92V20.99C37.7859 20.8967 37.7859 20.8733 37.7392 20.92ZM62.5403 12.485L62.6803 12.52C62.7269 12.52 62.7503 12.5317 62.7503 12.555C63.3569 12.3217 63.8586 12.4967 64.2553 13.08C64.5119 13.4767 64.7103 14.0833 64.8503 14.9C64.8969 16.02 64.7803 17.5717 64.5003 19.555C63.9636 23.5683 63.6719 25.96 63.6253 26.73C63.6719 27.5467 63.1703 28.1067 62.1203 28.41C61.2103 28.69 60.3003 28.6783 59.3903 28.375C58.4336 28.0483 58.0369 27.5467 58.2003 26.87C58.0136 27.22 57.8269 27.465 57.6403 27.605C57.4536 27.7683 57.0803 27.9783 56.5203 28.235C55.9836 28.515 55.2136 28.7367 54.2103 28.9C53.2069 29.0867 52.2036 29.1333 51.2003 29.04C50.1969 28.97 49.2753 28.725 48.4353 28.305C47.6186 27.9083 47.0703 27.2783 46.7903 26.415C46.2536 24.735 46.3236 22.6 47.0003 20.01C47.4669 18.3067 48.3069 16.8017 49.5203 15.495C50.9203 14.0017 52.5069 12.765 54.2803 11.785C55.6103 11.0617 56.8936 10.63 58.1303 10.49C58.5503 10.4433 58.9119 10.455 59.2153 10.525C59.5419 10.595 59.8803 10.665 60.2303 10.735C60.6036 10.805 60.9536 10.91 61.2803 11.05C62.1203 11.4 62.5403 11.8783 62.5403 12.485ZM56.0653 21.76C56.2286 21.4333 56.3569 21.025 56.4503 20.535C56.5669 20.045 56.7186 19.5083 56.9053 18.925C55.0153 19.695 53.5686 20.64 52.5653 21.76C51.4686 22.9967 51.5386 23.8483 52.7753 24.315C53.8486 24.595 54.6303 24.42 55.1203 23.79C55.3303 23.51 55.5169 23.16 55.6803 22.74C55.8436 22.32 56.0419 21.8883 56.2753 21.445C56.2053 21.5617 56.1353 21.6667 56.0653 21.76ZM70.0699 12.345C71.6332 11.715 72.6832 11.7033 73.2199 12.31C73.4999 12.6367 73.6399 13.0917 73.6399 13.675V13.85C74.5032 12.8467 76.0082 12.0067 78.1549 11.33C80.4182 10.63 82.2849 10.4317 83.7549 10.735C85.6682 11.1317 86.7416 12.38 86.9749 14.48C87.1616 16.2533 86.7532 18.505 85.7499 21.235C85.4232 21.935 85.1666 22.5067 84.9799 22.95C84.8166 23.37 84.6649 23.755 84.5249 24.105C84.2216 24.7583 83.7432 25.54 83.0899 26.45C82.7166 27.15 82.1332 27.6867 81.3399 28.06C80.5699 28.4333 79.7999 28.6433 79.0299 28.69C78.2832 28.76 77.6649 28.6433 77.1749 28.34C76.6849 28.06 76.5449 27.605 76.7549 26.975C77.2916 25.5283 77.7349 24.21 78.0849 23.02C78.4349 21.83 78.7966 20.815 79.1699 19.975C79.5199 18.785 79.5666 18.0383 79.3099 17.735C79.0999 17.5017 78.7382 17.5367 78.2249 17.84C77.7816 18.12 77.4666 18.4467 77.2799 18.82C76.8599 19.1233 76.0666 20.3367 74.8999 22.46C74.5732 23.0433 74.2466 23.6267 73.9199 24.21C73.6166 24.77 73.3249 25.295 73.0449 25.785C72.7882 26.275 72.5549 26.6833 72.3449 27.01C72.1582 27.3367 71.9832 27.5467 71.8199 27.64C71.6799 27.7567 71.5516 27.8267 71.4349 27.85C71.3416 27.8967 71.2599 27.9433 71.1899 27.99C71.1199 28.0367 71.0616 28.1883 71.0149 28.445C70.9216 28.9817 70.3616 29.3783 69.3349 29.635C67.6782 30.055 66.1849 29.985 64.8549 29.425C64.4116 29.2383 64.0616 28.9817 63.8049 28.655C63.2682 27.5817 64.1899 23.93 66.5699 17.7C67.4099 15.5067 67.9582 14.2 68.2149 13.78C68.7982 12.8933 69.1716 12.3917 69.3349 12.275C69.5216 12.1583 69.7666 12.1817 70.0699 12.345ZM100.707 13.535C101.104 12.8117 101.629 12.45 102.282 12.45C103.285 13.01 103.915 13.92 104.172 15.18C104.429 16.44 104.149 17.5717 103.332 18.575C103.309 18.5983 103.32 18.7967 103.367 19.17C103.787 21.5033 103.635 23.93 102.912 26.45C102.655 27.29 102.352 28.0717 102.002 28.795C101.675 29.5183 101.255 30.4283 100.742 31.525C100.252 32.6217 99.5519 33.7067 98.6419 34.78C97.7319 35.8533 96.7053 36.705 95.5619 37.335C93.1586 38.6883 90.4753 38.98 87.5119 38.21C86.4386 37.79 85.6919 37.3 85.2719 36.74C84.7353 36.0633 84.5486 35.34 84.7119 34.57C84.8753 33.6133 85.4353 33.0883 86.3919 32.995C86.8586 32.9483 87.4419 33.1233 88.1419 33.52C88.9353 33.6833 89.5769 33.6717 90.0669 33.485C90.5569 33.2983 90.9419 33.1233 91.2219 32.96C91.5253 32.82 91.8986 32.6333 92.3419 32.4C93.1119 32.0033 93.9869 31.0933 94.9669 29.67C95.5036 28.9233 96.0403 27.92 96.5769 26.66C95.7136 27.7567 94.3369 28.2933 92.4469 28.27C91.9103 28.2467 91.3036 28.2233 90.6269 28.2C89.9736 28.1767 89.3786 27.955 88.8419 27.535C88.3053 27.115 87.8736 26.5667 87.5469 25.89C87.2203 25.2133 86.9986 24.4433 86.8819 23.58C86.7886 22.6933 86.7886 21.795 86.8819 20.885C87.2553 17.7117 88.5853 15.2033 90.8719 13.36C92.4353 12.0767 94.1153 11.3883 95.9119 11.295C96.7753 11.2483 97.5919 11.3417 98.3619 11.575C99.2953 11.925 100.077 12.5783 100.707 13.535ZM96.4369 21.48C96.4369 21.41 96.4486 21.3517 96.4719 21.305C96.3553 21.2583 96.2386 21.2233 96.1219 21.2C96.0053 21.1533 95.7953 21.0833 95.4919 20.99C95.1886 20.8967 94.7803 20.955 94.2669 21.165C93.7536 21.3517 93.2986 21.62 92.9019 21.97C92.5286 22.2967 92.2253 22.6467 91.9919 23.02C91.7819 23.3933 91.7469 23.7083 91.8869 23.965C92.0503 24.2217 92.3303 24.3267 92.7269 24.28C93.1236 24.21 93.5553 24.035 94.0219 23.755C95.0486 23.125 95.8536 22.3667 96.4369 21.48Z" fill="#023664"/>
</svg>
