<svg width="466" height="1231" viewBox="0 0 466 1231" fill="none" xmlns="http://www.w3.org/2000/svg">
<rect width="466" height="1231" fill="#F5F5F5"/>
<g clip-path="url(#clip0_39_523)">
<rect width="1440" height="1535" transform="translate(-144 -122)" fill="#FAFAFA"/>
<g filter="url(#filter0_dd_39_523)">
<rect width="1152" height="1231" rx="20" fill="white"/>
</g>
<g filter="url(#filter1_dd_39_523)">
<rect width="466" height="1231" fill="#023664"/>
</g>
<g clip-path="url(#clip1_39_523)">
<g filter="url(#filter2_f_39_523)">
<ellipse cx="47" cy="1198" rx="152" ry="146" fill="#1E3A8A"/>
</g>
<g filter="url(#filter3_f_39_523)">
<ellipse cx="388" cy="230" rx="284" ry="322" fill="#1E3A8A"/>
</g>
</g>
<path d="M195.264 165.44C187.824 165.44 181.664 162.44 176.784 156.44C171.904 150.36 169.464 142.44 169.464 132.68C169.464 122.92 171.144 114.04 174.504 106.04C177.864 97.96 182.664 91.4 188.904 86.36C195.144 81.32 201.784 78.8 208.824 78.8C215.944 78.8 221.664 80.4 225.984 83.6C230.384 86.8 232.584 90.64 232.584 95.12C232.584 99.52 231.264 103.28 228.624 106.4C226.064 106.4 223.184 105.84 219.984 104.72C216.784 103.6 214.384 102.24 212.784 100.64L215.064 88.52C213.144 87.32 210.624 86.72 207.504 86.72C202.624 86.72 198.304 90.92 194.544 99.32C190.784 107.64 188.904 117.92 188.904 130.16C188.904 138.24 190.224 144.12 192.864 147.8C195.584 151.4 198.864 153.2 202.704 153.2C209.024 153.2 215.104 150.24 220.944 144.32L225.864 148.76C224.984 150.04 223.384 151.8 221.064 154.04C218.744 156.28 216.464 158.16 214.224 159.68C211.984 161.12 209.144 162.44 205.704 163.64C202.264 164.84 198.784 165.44 195.264 165.44ZM234.383 164.36H233.543C233.383 163.72 233.303 162.28 233.303 160.04C233.303 157.72 234.383 151.56 236.543 141.56C238.703 131.56 239.783 125.84 239.783 124.4C239.783 121.92 238.663 119.2 236.423 116.24L235.343 114.8L235.463 113.24C239.783 112.04 246.703 111.44 256.223 111.44C257.183 113.52 257.663 116.44 257.663 120.2C258.543 118.76 260.383 116.84 263.183 114.44C265.983 112.04 268.863 110.84 271.823 110.84C276.143 110.84 278.303 114.6 278.303 122.12C277.903 122.6 277.343 123.24 276.623 124.04C275.983 124.76 274.623 125.8 272.543 127.16C270.543 128.52 268.583 129.36 266.663 129.68C266.583 129.68 265.903 128.6 264.623 126.44C263.343 124.28 262.383 123.2 261.743 123.2C259.743 123.92 257.983 125.12 256.463 126.8C252.783 143.36 250.943 154.08 250.943 158.96C250.943 160.72 250.983 161.96 251.063 162.68C248.263 163.8 242.703 164.36 234.383 164.36ZM275.214 143.24C275.214 133.24 278.214 125.36 284.214 119.6C290.294 113.76 297.174 110.84 304.854 110.84C309.574 110.84 313.454 112 316.494 114.32C319.534 116.64 321.054 119.76 321.054 123.68C321.054 127.52 320.054 130.76 318.054 133.4C316.134 136.04 313.774 138.08 310.974 139.52C305.294 142.32 300.094 144.08 295.374 144.8L292.494 145.16C293.054 152.68 296.134 156.44 301.734 156.44C303.654 156.44 305.694 155.96 307.854 155C310.014 154.04 311.694 153.08 312.894 152.12L314.694 150.68L317.574 154.52C316.934 155.4 315.654 156.56 313.734 158C311.814 159.44 310.014 160.64 308.334 161.6C303.694 164.16 298.614 165.44 293.094 165.44C287.574 165.44 283.214 163.48 280.014 159.56C276.814 155.64 275.214 150.2 275.214 143.24ZM292.374 139.28C296.454 138.56 299.694 136.84 302.094 134.12C304.494 131.4 305.694 127.88 305.694 123.56C305.694 119.24 304.414 117.08 301.854 117.08C298.814 117.08 296.454 119.68 294.774 124.88C293.174 130 292.374 134.8 292.374 139.28ZM359.383 114.32C359.543 114.16 359.983 113.12 360.703 111.2C364.463 111.2 369.503 112.32 375.823 114.56C373.823 121.2 372.223 128.16 371.023 135.44C369.823 142.64 369.223 147.8 369.223 150.92C369.223 153.96 369.543 155.48 370.183 155.48C370.663 155.48 372.423 154.72 375.463 153.2L376.903 152.48L379.063 156.68C378.343 157.32 377.383 158.12 376.183 159.08C375.063 160.04 372.903 161.36 369.703 163.04C366.503 164.64 363.623 165.44 361.063 165.44C356.103 165.44 353.223 163.2 352.423 158.72C347.303 163.2 342.663 165.44 338.503 165.44C334.423 165.44 330.943 163.84 328.063 160.64C325.263 157.44 323.863 152.4 323.863 145.52C323.863 134.8 326.063 126.36 330.463 120.2C334.863 113.96 340.183 110.84 346.423 110.84C350.903 110.84 355.223 112 359.383 114.32ZM345.703 155.24C347.623 155.24 349.783 154.48 352.183 152.96C352.743 141.68 354.623 130.52 357.823 119.48C355.423 118.44 353.383 117.92 351.703 117.92C348.823 117.92 346.343 120.76 344.263 126.44C342.263 132.04 341.263 138.24 341.263 145.04C341.263 151.84 342.743 155.24 345.703 155.24ZM418.84 112.28C418.68 114.28 418 116.6 416.8 119.24C413.76 118.92 410.88 118.76 408.16 118.76H406C402.32 136.6 400.48 147.72 400.48 152.12C400.48 154.44 400.96 155.6 401.92 155.6C402.96 155.6 405.64 154.6 409.96 152.6L412.12 156.56C405 162.48 398.4 165.44 392.32 165.44C389.52 165.44 387.2 164.56 385.36 162.8C383.6 161.04 382.72 158.72 382.72 155.84C382.72 152.88 383.04 149.56 383.68 145.88C384.4 142.2 385.36 137.72 386.56 132.44C387.76 127.08 388.64 122.76 389.2 119.48C386.24 119.72 384.04 119.96 382.6 120.2C382.44 119.24 382.36 117.96 382.36 116.36C382.36 114.68 382.48 113.32 382.72 112.28H390.28C390.92 107.96 391.24 103.88 391.24 100.04L391.12 96.32V95.96C397.36 93.8 403.24 92.72 408.76 92.72C409.08 94.32 409.24 96.32 409.24 98.72C409.24 101.12 408.56 105.64 407.2 112.28H418.84ZM416.19 143.24C416.19 133.24 419.19 125.36 425.19 119.6C431.27 113.76 438.15 110.84 445.83 110.84C450.55 110.84 454.43 112 457.47 114.32C460.51 116.64 462.03 119.76 462.03 123.68C462.03 127.52 461.03 130.76 459.03 133.4C457.11 136.04 454.75 138.08 451.95 139.52C446.27 142.32 441.07 144.08 436.35 144.8L433.47 145.16C434.03 152.68 437.11 156.44 442.71 156.44C444.63 156.44 446.67 155.96 448.83 155C450.99 154.04 452.67 153.08 453.87 152.12L455.67 150.68L458.55 154.52C457.91 155.4 456.63 156.56 454.71 158C452.79 159.44 450.99 160.64 449.31 161.6C444.67 164.16 439.59 165.44 434.07 165.44C428.55 165.44 424.19 163.48 420.99 159.56C417.79 155.64 416.19 150.2 416.19 143.24ZM433.35 139.28C437.43 138.56 440.67 136.84 443.07 134.12C445.47 131.4 446.67 127.88 446.67 123.56C446.67 119.24 445.39 117.08 442.83 117.08C439.79 117.08 437.43 119.68 435.75 124.88C434.15 130 433.35 134.8 433.35 139.28Z" fill="white"/>
<path d="M266.412 262.48H264.132C264.452 258.88 266.572 248.32 270.492 230.8C274.412 213.2 276.852 200.04 277.812 191.32C277.812 190.04 277.372 188.52 276.492 186.76C275.692 184.92 274.852 183.44 273.972 182.32L272.772 180.64L273.132 178.84C277.612 177.48 285.332 176.8 296.292 176.8C297.332 178.72 297.852 180.6 297.852 182.44C297.852 184.28 297.692 186.56 297.372 189.28C307.372 180.96 315.532 176.8 321.852 176.8C326.012 176.8 329.372 178.16 331.932 180.88C334.492 183.6 335.772 187.4 335.772 192.28C335.772 197.16 334.052 206.48 330.612 220.24C327.252 233.92 325.572 243.48 325.572 248.92C325.572 251.24 325.972 252.4 326.772 252.4C327.492 252.4 329.492 251.6 332.772 250L334.332 249.28L336.732 253.72C333.372 256.6 329.892 258.96 326.292 260.8C322.692 262.56 319.412 263.44 316.452 263.44C313.572 263.44 311.212 262.4 309.372 260.32C307.532 258.16 306.612 255.28 306.612 251.68C306.612 248 308.252 238.92 311.532 224.44C314.892 209.96 316.572 200.72 316.572 196.72C316.572 192.72 315.012 190.72 311.892 190.72C307.172 190.72 301.812 193.08 295.812 197.8C294.932 202.04 293.292 209.12 290.892 219.04C285.612 240.88 282.972 254.56 282.972 260.08C279.852 261.68 274.332 262.48 266.412 262.48ZM341.308 241.24C341.308 231.24 344.308 223.36 350.308 217.6C356.388 211.76 363.268 208.84 370.948 208.84C375.668 208.84 379.548 210 382.588 212.32C385.628 214.64 387.148 217.76 387.148 221.68C387.148 225.52 386.148 228.76 384.148 231.4C382.228 234.04 379.868 236.08 377.068 237.52C371.388 240.32 366.188 242.08 361.468 242.8L358.588 243.16C359.148 250.68 362.228 254.44 367.828 254.44C369.748 254.44 371.788 253.96 373.948 253C376.108 252.04 377.788 251.08 378.988 250.12L380.788 248.68L383.668 252.52C383.028 253.4 381.748 254.56 379.828 256C377.908 257.44 376.108 258.64 374.428 259.6C369.788 262.16 364.708 263.44 359.188 263.44C353.668 263.44 349.308 261.48 346.107 257.56C342.908 253.64 341.308 248.2 341.308 241.24ZM358.468 237.28C362.548 236.56 365.788 234.84 368.188 232.12C370.588 229.4 371.788 225.88 371.788 221.56C371.788 217.24 370.508 215.08 367.948 215.08C364.908 215.08 362.548 217.68 360.868 222.88C359.268 228 358.468 232.8 358.468 237.28ZM392.357 252.16L393.677 220.84C393.677 218.12 392.237 215.32 389.357 212.44L389.597 211C390.157 210.84 390.677 210.72 391.157 210.64C391.717 210.48 392.317 210.32 392.957 210.16C393.677 210 394.477 209.84 395.357 209.68C396.237 209.52 397.157 209.36 398.117 209.2C400.357 208.96 402.437 208.84 404.357 208.84C406.357 208.84 408.037 209.64 409.397 211.24C410.837 212.84 411.557 215.4 411.557 218.92C411.557 222.36 410.997 227.32 409.877 233.8C408.837 240.2 408.317 245 408.317 248.2C408.317 251.32 409.077 252.88 410.597 252.88C413.077 252.88 415.797 251.32 418.757 248.2C418.837 246.92 419.357 242.84 420.317 235.96C421.277 229.08 421.757 224.08 421.757 220.96C421.757 217.84 421.517 215.16 421.037 212.92C427.197 210.6 432.717 209.44 437.597 209.44C438.637 210.16 439.157 212.52 439.157 216.52C439.157 220.44 438.477 225.92 437.117 232.96C435.757 239.92 435.077 245 435.077 248.2C435.077 251.32 435.717 252.88 436.997 252.88C440.037 252.88 443.357 250.64 446.957 246.16C450.557 241.6 452.477 237.8 452.717 234.76L444.557 225.64C444.877 222.2 445.717 219.08 447.077 216.28C448.437 213.48 449.717 211.52 450.917 210.4L452.597 208.84C456.037 208.84 458.637 209.76 460.397 211.6C462.157 213.44 463.037 215.6 463.037 218.08C463.037 224.4 461.477 231.08 458.357 238.12C455.237 245.16 451.037 251.16 445.757 256.12C440.477 261 435.117 263.44 429.677 263.44C426.957 263.44 424.637 262.68 422.717 261.16C420.877 259.56 419.637 257.52 418.997 255.04C413.397 260.64 407.957 263.44 402.677 263.44C399.157 263.44 396.557 262.36 394.877 260.2C393.197 257.96 392.357 255.28 392.357 252.16Z" fill="white"/>
<path d="M99.5281 358.44C98.9681 360.2 97.6881 361.08 95.6881 361.08C93.7681 361.08 91.5681 360 89.0881 357.84C91.4881 350.8 96.5681 339.48 104.328 323.88C112.088 308.2 117.128 296.48 119.448 288.72C119.768 287.44 119.928 286.56 119.928 286.08C119.928 284.88 119.048 283.04 117.288 280.56L116.328 279.24L116.568 277.68C123.368 275.76 130.888 274.8 139.128 274.8L146.448 275.28C147.328 276.48 148.008 278.32 148.488 280.8C149.768 286.88 150.408 302.52 150.408 327.72C150.408 337.48 151.248 344.36 152.928 348.36C153.568 349.88 154.208 350.64 154.848 350.64C155.488 350.64 157.448 349.84 160.728 348.24L162.288 347.52L164.688 351.84C161.648 354.8 158.248 357.16 154.488 358.92C150.808 360.6 147.408 361.44 144.288 361.44C136.208 361.44 132.168 355.16 132.168 342.6V333.12C130.088 332.64 126.928 332.4 122.688 332.4C118.448 332.4 113.808 332.8 108.768 333.6C104.768 342.88 101.688 351.16 99.5281 358.44ZM132.408 324.96L132.528 311.04C132.528 298.88 132.008 290.64 130.968 286.32C130.328 286.32 129.848 286.4 129.528 286.56C127.288 292.72 125.168 297.96 123.168 302.28C121.248 306.52 119.128 311.08 116.808 315.96C114.568 320.76 113.168 323.76 112.608 324.96H132.408ZM192.669 312.84C189.469 312.84 186.909 315.52 184.989 320.88C183.069 326.16 182.109 331.84 182.109 337.92C182.109 347.52 185.069 352.32 190.989 352.32C192.909 352.32 194.949 351.88 197.109 351C199.269 350.04 200.989 349.12 202.269 348.24L204.069 346.8L206.829 350.52C206.189 351.4 204.909 352.56 202.989 354C201.069 355.44 199.269 356.64 197.589 357.6C195.909 358.56 193.749 359.44 191.109 360.24C188.469 361.04 185.869 361.44 183.309 361.44C177.069 361.44 172.389 359.4 169.269 355.32C166.149 351.24 164.589 345.76 164.589 338.88C164.589 329.36 167.189 321.64 172.389 315.72C177.669 309.8 184.429 306.84 192.669 306.84C198.029 306.84 202.269 308.08 205.389 310.56C208.589 312.96 210.189 315.96 210.189 319.56C210.189 323.08 209.069 326.12 206.829 328.68C204.829 328.68 202.509 328.24 199.869 327.36C197.229 326.48 195.229 325.4 193.869 324.12L195.669 313.56C194.949 313.08 193.949 312.84 192.669 312.84ZM240.364 312.84C237.164 312.84 234.604 315.52 232.684 320.88C230.764 326.16 229.804 331.84 229.804 337.92C229.804 347.52 232.764 352.32 238.684 352.32C240.604 352.32 242.644 351.88 244.804 351C246.964 350.04 248.684 349.12 249.964 348.24L251.764 346.8L254.524 350.52C253.884 351.4 252.604 352.56 250.684 354C248.764 355.44 246.964 356.64 245.284 357.6C243.604 358.56 241.444 359.44 238.804 360.24C236.164 361.04 233.564 361.44 231.004 361.44C224.764 361.44 220.084 359.4 216.964 355.32C213.844 351.24 212.284 345.76 212.284 338.88C212.284 329.36 214.884 321.64 220.084 315.72C225.364 309.8 232.124 306.84 240.364 306.84C245.724 306.84 249.964 308.08 253.084 310.56C256.284 312.96 257.884 315.96 257.884 319.56C257.884 323.08 256.764 326.12 254.524 328.68C252.524 328.68 250.204 328.24 247.564 327.36C244.924 326.48 242.924 325.4 241.564 324.12L243.364 313.56C242.644 313.08 241.644 312.84 240.364 312.84ZM277.259 361.44C271.739 361.44 267.419 359.52 264.299 355.68C261.179 351.76 259.619 346.32 259.619 339.36C259.619 330.48 261.979 322.84 266.699 316.44C271.499 310.04 278.099 306.84 286.499 306.84L290.819 307.08C292.179 306.36 293.699 306 295.379 306C301.699 306 304.859 311.96 304.859 323.88C308.139 323.72 311.459 323.28 314.819 322.56L316.739 322.08L317.459 326.76C314.819 327.88 311.259 328.88 306.779 329.76L304.379 330.24C302.859 338.64 299.779 345.96 295.139 352.2C290.499 358.36 284.539 361.44 277.259 361.44ZM283.739 351.12C287.099 351.12 290.099 348.96 292.739 344.64C295.459 340.32 297.339 335.76 298.379 330.96C289.819 330.96 285.539 327.76 285.539 321.36C285.539 318.8 286.059 316.4 287.099 314.16L287.699 312.96C287.379 312.8 286.979 312.72 286.499 312.72C286.019 312.72 285.659 312.8 285.419 312.96C283.419 314.24 281.539 317.24 279.779 321.96C278.019 326.68 277.139 332.08 277.139 338.16C277.139 346.8 279.339 351.12 283.739 351.12ZM309.349 351C309.349 347.56 310.389 341.72 312.469 333.48C314.549 325.16 315.589 320.08 315.589 318.24C315.589 316.32 314.149 313.8 311.269 310.68L311.389 309.12C316.829 308 323.989 307.44 332.869 307.44C333.269 308.48 333.469 310.36 333.469 313.08C333.469 315.8 332.349 321.6 330.109 330.48C327.869 339.36 326.749 344.88 326.749 347.04C326.749 349.2 327.549 350.28 329.149 350.28C331.469 350.28 334.149 349.44 337.189 347.76C337.509 345.84 338.309 342.16 339.589 336.72C342.469 323.92 343.909 314.76 343.909 309.24C346.709 308.12 351.749 307.56 359.029 307.56H361.309C361.309 311.32 360.189 318.68 357.949 329.64C355.709 340.52 354.589 346.92 354.589 348.84C354.589 350.68 354.989 351.6 355.789 351.6C356.269 351.6 358.549 350.64 362.629 348.72L364.909 352.56C357.789 358.48 351.549 361.44 346.189 361.44C343.629 361.44 341.429 360.72 339.589 359.28C337.829 357.84 336.829 355.96 336.589 353.64C330.109 358.92 324.229 361.56 318.949 361.56C316.149 361.56 313.829 360.64 311.989 358.8C310.229 356.96 309.349 354.36 309.349 351ZM371.512 360.36H369.232C369.232 356.6 370.352 349.4 372.592 338.76C374.912 328.12 376.072 322.08 376.072 320.64C376.072 318 374.952 315.2 372.712 312.24L371.632 310.8L371.752 309.24C376.072 308.04 382.992 307.44 392.512 307.44C393.552 308.8 394.112 311.28 394.192 314.88C401.152 309.52 407.032 306.84 411.832 306.84C414.712 306.84 416.992 307.84 418.672 309.84C420.432 311.84 421.312 314.36 421.312 317.4C421.312 320.36 420.392 325.52 418.552 332.88C416.712 340.24 415.792 345.2 415.792 347.76C415.792 350.24 416.112 351.48 416.752 351.48C417.232 351.48 418.912 350.72 421.792 349.2L423.232 348.48L425.392 352.68C424.672 353.32 423.712 354.12 422.512 355.08C421.312 356.04 419.072 357.36 415.792 359.04C412.592 360.64 409.712 361.44 407.152 361.44C401.312 361.44 398.392 358.12 398.392 351.48C398.392 348.68 399.272 343.52 401.032 336C402.872 328.48 403.792 323.64 403.792 321.48C403.792 319.32 403.112 318.24 401.752 318.24C399.432 318.24 396.592 319.24 393.232 321.24C392.992 322.6 392.192 326.2 390.832 332.04C388.032 344.6 386.632 353.48 386.632 358.68C383.832 359.8 378.792 360.36 371.512 360.36ZM466.769 308.28C466.609 310.28 465.929 312.6 464.729 315.24C461.689 314.92 458.809 314.76 456.089 314.76H453.929C450.249 332.6 448.409 343.72 448.409 348.12C448.409 350.44 448.889 351.6 449.849 351.6C450.889 351.6 453.569 350.6 457.889 348.6L460.049 352.56C452.929 358.48 446.329 361.44 440.249 361.44C437.449 361.44 435.129 360.56 433.289 358.8C431.529 357.04 430.649 354.72 430.649 351.84C430.649 348.88 430.969 345.56 431.609 341.88C432.329 338.2 433.289 333.72 434.489 328.44C435.689 323.08 436.569 318.76 437.129 315.48C434.169 315.72 431.969 315.96 430.529 316.2C430.369 315.24 430.289 313.96 430.289 312.36C430.289 310.68 430.409 309.32 430.649 308.28H438.209C438.849 303.96 439.169 299.88 439.169 296.04L439.049 292.32V291.96C445.289 289.8 451.169 288.72 456.689 288.72C457.009 290.32 457.169 292.32 457.169 294.72C457.169 297.12 456.489 301.64 455.129 308.28H466.769Z" fill="white"/>
</g>
<defs>
<filter id="filter0_dd_39_523" x="-50" y="-46" width="1252" height="1331" filterUnits="userSpaceOnUse" color-interpolation-filters="sRGB">
<feFlood flood-opacity="0" result="BackgroundImageFix"/>
<feColorMatrix in="SourceAlpha" type="matrix" values="0 0 0 0 0 0 0 0 0 0 0 0 0 0 0 0 0 0 127 0" result="hardAlpha"/>
<feOffset dy="4"/>
<feGaussianBlur stdDeviation="3"/>
<feComposite in2="hardAlpha" operator="out"/>
<feColorMatrix type="matrix" values="0 0 0 0 0 0 0 0 0 0 0 0 0 0 0 0 0 0 0.05 0"/>
<feBlend mode="normal" in2="BackgroundImageFix" result="effect1_dropShadow_39_523"/>
<feColorMatrix in="SourceAlpha" type="matrix" values="0 0 0 0 0 0 0 0 0 0 0 0 0 0 0 0 0 0 127 0" result="hardAlpha"/>
<feOffset dy="4"/>
<feGaussianBlur stdDeviation="25"/>
<feComposite in2="hardAlpha" operator="out"/>
<feColorMatrix type="matrix" values="0 0 0 0 0 0 0 0 0 0 0 0 0 0 0 0 0 0 0.08 0"/>
<feBlend mode="normal" in2="effect1_dropShadow_39_523" result="effect2_dropShadow_39_523"/>
<feBlend mode="normal" in="SourceGraphic" in2="effect2_dropShadow_39_523" result="shape"/>
</filter>
<filter id="filter1_dd_39_523" x="-46" y="-50" width="566" height="1331" filterUnits="userSpaceOnUse" color-interpolation-filters="sRGB">
<feFlood flood-opacity="0" result="BackgroundImageFix"/>
<feColorMatrix in="SourceAlpha" type="matrix" values="0 0 0 0 0 0 0 0 0 0 0 0 0 0 0 0 0 0 127 0" result="hardAlpha"/>
<feOffset dx="4"/>
<feGaussianBlur stdDeviation="3"/>
<feComposite in2="hardAlpha" operator="out"/>
<feColorMatrix type="matrix" values="0 0 0 0 0 0 0 0 0 0 0 0 0 0 0 0 0 0 0.05 0"/>
<feBlend mode="normal" in2="BackgroundImageFix" result="effect1_dropShadow_39_523"/>
<feColorMatrix in="SourceAlpha" type="matrix" values="0 0 0 0 0 0 0 0 0 0 0 0 0 0 0 0 0 0 127 0" result="hardAlpha"/>
<feOffset dx="4"/>
<feGaussianBlur stdDeviation="25"/>
<feComposite in2="hardAlpha" operator="out"/>
<feColorMatrix type="matrix" values="0 0 0 0 0 0 0 0 0 0 0 0 0 0 0 0 0 0 0.08 0"/>
<feBlend mode="normal" in2="effect1_dropShadow_39_523" result="effect2_dropShadow_39_523"/>
<feBlend mode="normal" in="SourceGraphic" in2="effect2_dropShadow_39_523" result="shape"/>
</filter>
<filter id="filter2_f_39_523" x="-305" y="852" width="704" height="692" filterUnits="userSpaceOnUse" color-interpolation-filters="sRGB">
<feFlood flood-opacity="0" result="BackgroundImageFix"/>
<feBlend mode="normal" in="SourceGraphic" in2="BackgroundImageFix" result="shape"/>
<feGaussianBlur stdDeviation="100" result="effect1_foregroundBlur_39_523"/>
</filter>
<filter id="filter3_f_39_523" x="-96" y="-292" width="968" height="1044" filterUnits="userSpaceOnUse" color-interpolation-filters="sRGB">
<feFlood flood-opacity="0" result="BackgroundImageFix"/>
<feBlend mode="normal" in="SourceGraphic" in2="BackgroundImageFix" result="shape"/>
<feGaussianBlur stdDeviation="100" result="effect1_foregroundBlur_39_523"/>
</filter>
<clipPath id="clip0_39_523">
<rect width="1440" height="1535" fill="white" transform="translate(-144 -122)"/>
</clipPath>
<clipPath id="clip1_39_523">
<rect width="466" height="1231" fill="white"/>
</clipPath>
</defs>
</svg>
