<?xml version="1.0"?>
<svg width="680" height="753" xmlns="http://www.w3.org/2000/svg" xmlns:svg="http://www.w3.org/2000/svg">
 <defs>
  <filter color-interpolation-filters="sRGB" filterUnits="userSpaceOnUse" height="753" id="filter0_dd_1113_6641" width="679.51" x="0" y="0">
   <feFlood flood-opacity="0" result="BackgroundImageFix"/>
   <feColorMatrix in="SourceAlpha" result="hardAlpha" type="matrix" values="0 0 0 0 0 0 0 0 0 0 0 0 0 0 0 0 0 0 127 0"/>
   <feOffset dx="4"/>
   <feGaussianBlur stdDeviation="3"/>
   <feComposite in2="hardAlpha" operator="out"/>
   <feColorMatrix type="matrix" values="0 0 0 0 0 0 0 0 0 0 0 0 0 0 0 0 0 0 0.05 0"/>
   <feBlend in2="BackgroundImageFix"/>
   <feColorMatrix in="SourceAlpha" result="hardAlpha" type="matrix" values="0 0 0 0 0 0 0 0 0 0 0 0 0 0 0 0 0 0 127 0"/>
   <feOffset dx="4"/>
   <feGaussianBlur stdDeviation="25"/>
   <feComposite in2="hardAlpha" operator="out"/>
   <feColorMatrix type="matrix" values="0 0 0 0 0 0 0 0 0 0 0 0 0 0 0 0 0 0 0.08 0"/>
   <feBlend in2="effect1_dropShadow_1113_6641"/>
   <feBlend in="SourceGraphic" in2="effect2_dropShadow_1113_6641"/>
  </filter>
  <linearGradient id="paint0_linear_1113_6641" x1="0.5" x2="0.5" y1="1" y2="0">
   <stop stop-color="#3B82F6"/>
   <stop offset="1" stop-color="#023664"/>
  </linearGradient>
 </defs>
 <g class="layer">
  <title>Layer 1</title>
  <g filter="url(#filter0_dd_1113_6641)" id="svg_1">
   <path clip-rule="evenodd" d="m0.25,16.18c0,-6.3 2.84,-12.02 7.51,-15.68l525.25,0c-23.85,37.91 -47.43,89.01 -17.31,146.04c25.16,47.65 -4.13,84.83 -32.22,120.48c-31.13,39.52 -60.78,77.17 -13.12,125.09c90.67,91.16 112.14,132.87 109.14,180.46c-2.03,32.21 -16.88,59.54 -34.4,80.93l-536.27,0c-5.28,-3.6 -8.58,-9.69 -8.58,-16.47l0,-620.85z" fill="url(#paint0_linear_1113_6641)" fill-rule="evenodd" id="svg_2"/>
  </g>
 </g>
</svg>